<svg fill="none" height="24" viewBox="0 0 24 24" width="24" xmlns="http://www.w3.org/2000/svg"><g clip-rule="evenodd" fill="rgb(0,0,0)" fill-rule="evenodd"><path d="m16.9498 7.05025c.3905.39052.3905 1.02369 0 1.41421l-8.4853 8.48524c-.39052.3906-1.02369.3906-1.41421 0-.39053-.3905-.39053-1.0236 0-1.4142l8.48531-8.48525c.3905-.39053 1.0237-.39053 1.4142 0z"/><path d="m7.05022 7.05025c.39052-.39053 1.02369-.39053 1.41421 0l8.48527 8.48525c.3905.3906.3905 1.0237 0 1.4142-.3905.3906-1.0237.3906-1.4142 0l-8.48528-8.48524c-.39053-.39052-.39053-1.02369 0-1.41421z"/></g></svg>