<svg xmlns="http://www.w3.org/2000/svg" width="104" height="48" viewBox="0 0 104 48" fill="none"><g clip-path="url(#clip0_83_40)"><path d="M2.66457 47.6851V41.3281H0.193085V39.8217H6.81975V41.3219H4.3251V47.6851H2.66457Z" fill="#16161D"></path><path d="M14.4844 47.6851H9.18774V39.8217H14.4072V41.2664H10.8545V42.9193H14.0782V44.3532H10.8545V46.2358H14.4844V47.6851Z" fill="#16161D"></path><path d="M16.6825 43.7457C16.6825 41.4483 18.4141 39.6644 20.6292 39.6644C22.7021 39.6644 24.324 41.0428 24.599 43.0565H22.8396C22.6527 41.9294 21.7753 41.1523 20.657 41.1523C19.3085 41.1523 18.3987 42.2146 18.3987 43.7457C18.3987 45.2767 19.3085 46.3668 20.657 46.3668C21.7753 46.3668 22.6419 45.5789 22.8396 44.4518H24.6052C24.3302 46.4871 22.7083 47.8547 20.6354 47.8547C18.4203 47.8501 16.6825 46.0554 16.6825 43.7457Z" fill="#16161D"></path><path d="M27.1369 47.6851V39.8217H28.8036V42.9193H32.2143V39.8217H33.881V47.6851H32.2143V44.3594H28.8036V47.6851H27.1369Z" fill="#16161D"></path><path d="M38.3976 42.2023V47.6851H36.8745V39.8217H38.6725L42.1048 45.0316V39.8217H43.6387V47.6851H42.0059L38.3976 42.2023Z" fill="#16161D"></path><path d="M46.1719 43.7457C46.1719 41.3928 47.9267 39.6644 50.1881 39.6644C52.4495 39.6644 54.2336 41.3928 54.2336 43.7457C54.2336 46.0986 52.4773 47.8501 50.202 47.8501C47.9267 47.8501 46.1719 46.0986 46.1719 43.7457ZM52.5206 43.7457C52.5206 42.301 51.6432 41.1523 50.1958 41.1523C48.7485 41.1523 47.8788 42.301 47.8788 43.7457C47.8788 45.1904 48.7562 46.3668 50.1958 46.3668C51.6355 46.3668 52.519 45.1904 52.519 43.7457H52.5206Z" fill="#16161D"></path><path d="M56.7638 47.6851V39.8217H58.4305V46.1803H61.852V47.6851H56.7638Z" fill="#16161D"></path><path d="M63.2437 43.7457C63.2437 41.3928 64.9985 39.6644 67.2676 39.6644C69.5367 39.6644 71.3147 41.3928 71.3147 43.7457C71.3147 46.0986 69.5491 47.8501 67.2676 47.8501C64.9861 47.8501 63.2437 46.0986 63.2437 43.7457ZM69.5923 43.7457C69.5923 42.301 68.715 41.1523 67.2753 41.1523C65.8357 41.1523 64.9583 42.301 64.9583 43.7457C64.9583 45.1904 65.8357 46.3668 67.2753 46.3668C68.715 46.3668 69.5923 45.1904 69.5923 43.7457Z" fill="#16161D"></path><path d="M73.3722 43.7244C73.3722 41.4039 75.0713 39.6678 77.3667 39.6678C79.3624 39.6678 80.7882 40.8488 81.3026 42.5572H79.3408C79.0983 41.757 78.3754 41.1557 77.3219 41.1557C76.0507 41.1557 75.0852 42.0808 75.0852 43.7768C75.0852 45.2863 75.9302 46.4473 77.5088 46.4473C78.672 46.4473 79.4057 45.7566 79.625 44.7836H77.3451V43.4592H81.4045C81.5034 46.0202 79.9463 47.8581 77.4347 47.8581C75.1517 47.8504 73.3722 46.1544 73.3722 43.7244Z" fill="#16161D"></path><path d="M87.092 47.6851H85.4207V44.7309L82.6403 39.8217H84.4383L86.3135 43.2138L88.2212 39.8217H89.9002L87.0936 44.7248L87.092 47.6851Z" fill="#16161D"></path><path d="M33.365 11.669H22.6805L26.5854 0.967011C26.6492 0.787061 26.7671 0.631194 26.9231 0.520779C27.079 0.410363 27.2654 0.350805 27.4566 0.350268H37.7056C37.7554 0.349791 37.8046 0.361366 37.849 0.384006C37.8935 0.406645 37.9317 0.439676 37.9605 0.480277C37.9894 0.520878 38.0079 0.567843 38.0146 0.617161C38.0214 0.666478 38.016 0.716682 37.999 0.763486L34.2455 11.06C34.1799 11.24 34.06 11.3953 33.9023 11.5044C33.7446 11.6134 33.5569 11.671 33.365 11.669Z" fill="#0313B0"></path><path d="M103.957 0.765034L91.9485 33.6991C91.8847 33.8791 91.7668 34.0349 91.6108 34.1453C91.4549 34.2558 91.2685 34.3153 91.0773 34.3158H62.3108C62.2612 34.3158 62.2123 34.3039 62.1683 34.281C62.1243 34.2582 62.0865 34.2251 62.058 34.1846C62.0295 34.144 62.0112 34.0973 62.0047 34.0482C61.9981 33.9991 62.0035 33.9492 62.0204 33.9026L65.7739 23.6046C65.8377 23.4246 65.9556 23.2687 66.1116 23.1583C66.2675 23.0479 66.4539 22.9884 66.6451 22.9878H84.2946C84.3579 22.9879 84.4197 22.9686 84.4717 22.9325C84.5236 22.8963 84.5632 22.8452 84.585 22.7858L92.5432 0.967017C92.6069 0.787067 92.7249 0.6312 92.8808 0.520785C93.0368 0.410369 93.2232 0.350811 93.4144 0.350274H103.663C103.713 0.349704 103.763 0.361278 103.807 0.384001C103.852 0.406724 103.89 0.439915 103.919 0.480719C103.948 0.521524 103.967 0.568719 103.973 0.618245C103.98 0.667772 103.974 0.718146 103.957 0.765034Z" fill="#0313B0"></path><path d="M22.679 11.669H11.3395V0.658626C11.3395 0.57684 11.3069 0.498405 11.249 0.440574C11.1911 0.382743 11.1125 0.350254 11.0305 0.350254H0.308935C0.227001 0.350254 0.148422 0.382743 0.0904851 0.440574C0.0325485 0.498405 0 0.57684 0 0.658626L0 33.9998C0 34.0815 0.0325485 34.16 0.0904851 34.2178C0.148422 34.2756 0.227001 34.3081 0.308935 34.3081H11.0305C11.1125 34.3081 11.1911 34.2756 11.249 34.2178C11.3069 34.16 11.3395 34.0815 11.3395 33.9998V22.9893H17.9028C18.0931 22.9894 18.2788 22.931 18.4346 22.822C18.5905 22.713 18.709 22.5588 18.774 22.3803L22.679 11.669Z" fill="#0313B0"></path><path d="M76.8956 11.669H66.6451C66.4542 11.6682 66.2681 11.6085 66.1125 11.4981C65.9568 11.3877 65.8391 11.232 65.7755 11.0523L62.4482 1.93683C62.4043 1.81879 62.3253 1.717 62.2218 1.64511C62.1182 1.57323 61.9951 1.5347 61.869 1.5347C61.7428 1.5347 61.6197 1.57323 61.5162 1.64511C61.4126 1.717 61.3336 1.81879 61.2897 1.93683L49.7046 33.6991C49.6409 33.879 49.523 34.0349 49.367 34.1453C49.211 34.2557 49.0247 34.3153 48.8334 34.3158H27.4566C27.2654 34.3153 27.0791 34.2557 26.9231 34.1453C26.7671 34.0349 26.6492 33.879 26.5854 33.6991L22.8303 23.4026C22.8132 23.3559 22.8075 23.3058 22.8139 23.2565C22.8203 23.2073 22.8386 23.1603 22.8671 23.1195C22.8956 23.0788 22.9336 23.0455 22.9777 23.0226C23.0219 22.9997 23.071 22.9877 23.1207 22.9878H33.365C33.5563 22.9883 33.7426 23.0479 33.8986 23.1583C34.0546 23.2687 34.1725 23.4246 34.2362 23.6045L37.5696 32.7293C37.6138 32.8468 37.6929 32.948 37.7963 33.0195C37.8996 33.091 38.0224 33.1293 38.1481 33.1293C38.2739 33.1293 38.3966 33.091 38.5 33.0195C38.6034 32.948 38.6824 32.8468 38.7266 32.7293L50.3117 0.966997C50.3752 0.787787 50.4924 0.632441 50.6474 0.52209C50.8025 0.41174 50.9878 0.35174 51.1783 0.350254L72.5597 0.350254C72.7509 0.35079 72.9373 0.410349 73.0932 0.520764C73.2492 0.63118 73.3671 0.787047 73.4309 0.966997L77.186 11.2635C77.2013 11.3096 77.2055 11.3587 77.1982 11.4068C77.191 11.4548 77.1724 11.5005 77.1441 11.54C77.1158 11.5795 77.0785 11.6118 77.0353 11.6342C76.9921 11.6567 76.9443 11.6686 76.8956 11.669Z" fill="#0313B0"></path></g><defs><clipPath id="clip0_83_40"><rect width="103.972" height="47.5" fill="white" transform="translate(0 0.350254)"></rect></clipPath></defs></svg>